{"glyphs":{"0":{"ha":1221,"x_min":8,"x_max":1308,"o":"m 1308 1111 l 1082 57 l 571 57 l 500 -278 l 8 -276 l 303 1111 l 1308 1111 m 829 428 l 907 796 l 539 796 l 461 428 l 829 428 m 1017 -278 l 810 -278 l 869 6 l 1076 6 l 1017 -278 m 756 -278 l 560 -278 l 619 6 l 815 6 l 756 -278 z "},"1":{"ha":775,"x_min":-1,"x_max":831,"o":"m 619 124 l 83 124 l 171 535 l 10 535 l 133 1115 l 831 1115 l 619 124 m 535 -279 l 293 -279 l 367 69 l 608 69 l 535 -279 m 240 -279 l -1 -279 l 72 69 l 314 69 l 240 -279 z "},"2":{"ha":1217,"x_min":8,"x_max":1304,"o":"m 1092 117 l 508 117 l 424 -281 l 8 -281 l 231 761 l 850 761 l 865 832 l 493 832 l 553 1115 l 1304 1115 l 1169 479 l 525 479 l 513 425 l 1157 425 l 1092 117 m 1007 -281 l 768 -281 l 840 56 l 1079 56 l 1007 -281 m 715 -281 l 476 -281 l 549 56 l 788 56 l 715 -281 z "},"3":{"ha":1201,"x_min":1,"x_max":1288,"o":"m 1065 65 l 553 65 l 479 -279 l 1 -279 l 144 392 l 869 392 l 885 463 l 160 463 l 213 710 l 938 710 l 951 781 l 493 781 l 564 1111 l 1288 1111 l 1065 65 m 992 -279 l 815 -279 l 874 -6 l 1050 -6 l 992 -279 m 744 -279 l 567 -279 l 625 -6 l 803 -6 l 744 -279 z "},"4":{"ha":1228,"x_min":3,"x_max":1315,"o":"m 1079 -278 l 576 -278 l 657 101 l 83 101 l 149 410 l 201 410 l 351 1115 l 669 1115 l 521 418 l 917 418 l 1006 833 l 1315 833 l 1079 -278 m 524 -278 l 285 -278 l 356 58 l 594 58 l 524 -278 m 232 -278 l 3 -278 l 74 58 l 303 58 l 232 -278 z "},"5":{"ha":1194,"x_min":-17,"x_max":1279,"o":"m 999 -279 l -17 -279 l 47 15 l 700 17 l 725 135 l 74 135 l 110 313 l 454 313 l 475 411 l 131 411 l 258 1011 l 585 1011 l 606 1110 l 876 1110 l 856 1011 l 1279 1010 l 1151 410 l 767 410 l 747 319 l 1126 319 l 999 -279 z "},"6":{"ha":1136,"x_min":4,"x_max":1217,"o":"m 1003 -275 l 578 -275 l 658 106 l 85 106 l 300 1115 l 582 1115 l 500 735 l 1217 735 l 1003 -275 m 861 435 l 872 488 l 457 488 l 446 435 l 861 435 m 535 -275 l 296 -275 l 367 61 l 606 61 l 535 -275 m 243 -275 l 4 -275 l 75 61 l 314 61 l 243 -275 z "},"7":{"ha":1028,"x_min":0,"x_max":1101,"o":"m 590 786 l 357 786 l 426 1115 l 660 1115 l 590 786 m 304 786 l 71 786 l 140 1115 l 374 1115 l 304 786 m 925 206 l 857 206 l 754 -278 l 494 -278 l 597 206 l 528 206 l 569 406 l 639 406 l 650 457 l 0 457 l 61 743 l 624 743 l 686 1038 l 782 1038 l 799 1115 l 1050 1115 l 1033 1038 l 1101 1038 l 978 457 q 908 449 935 457 l 901 414 q 967 406 929 406 l 925 206 z "},"8":{"ha":1176,"x_min":8,"x_max":1260,"o":"m 1044 101 l 478 101 l 413 -207 l 361 -207 l 346 -276 l 79 -276 l 94 -207 l 8 -207 l 138 401 l 215 401 l 288 746 l 218 746 l 297 1115 l 1260 1115 l 1044 101 m 850 686 l 861 738 l 569 738 l 558 686 l 850 686 m 792 411 l 801 454 l 510 454 l 500 411 l 792 411 m 964 -276 l 732 -276 l 801 50 l 1033 50 l 964 -276 m 681 -276 l 449 -276 l 518 50 l 750 50 l 681 -276 z "},"9":{"ha":1131,"x_min":-1,"x_max":1211,"o":"m 1140 778 l 901 778 l 972 1114 l 1211 1114 l 1140 778 m 849 778 l 610 778 l 681 1114 l 919 1114 l 849 778 m 917 -276 l 635 -276 l 715 104 l -1 104 l 213 1114 l 638 1114 l 557 733 l 1131 733 l 917 -276 m 758 351 l 769 404 l 354 404 l 343 351 l 758 351 z "}," ":{"ha":635,"x_min":0,"x_max":0,"o":""},"!":{"ha":739,"x_min":-3,"x_max":792,"o":"m 724 799 l 500 799 l 568 1115 l 792 1115 l 724 799 m 450 799 l 225 799 l 293 1115 l 518 1115 l 450 799 m 597 200 l 99 200 l 215 749 l 714 749 l 597 200 m 496 -276 l -3 -276 l 65 42 l 564 42 l 496 -276 z "},"\"":{"ha":682,"x_min":-1,"x_max":731,"o":"m 336 592 l 196 788 l -1 788 l -1 1111 l 336 1111 l 336 592 m 731 592 l 590 788 l 393 788 l 393 1111 l 731 1111 l 731 592 z "},"#":{"ha":568,"x_min":4,"x_max":608,"o":"m 608 618 l 493 618 l 493 538 l 360 538 l 360 618 l 236 618 l 236 538 l 103 538 l 103 618 l 4 618 l 4 778 l 103 778 l 103 857 l 4 857 l 4 1018 l 103 1018 l 103 1115 l 236 1115 l 236 1018 l 360 1018 l 360 1115 l 493 1115 l 493 1018 l 608 1018 l 608 857 l 493 857 l 493 778 l 608 778 l 608 618 m 351 786 l 351 849 l 244 849 l 244 786 l 351 786 z "},"$":{"ha":1004,"x_min":3,"x_max":1076,"o":"m 1018 765 l 819 765 l 878 1046 l 1076 1046 l 1018 765 m 775 765 l 576 765 l 635 1046 l 835 1046 l 775 765 m 826 -139 l 549 -139 l 518 -281 l 222 -281 l 253 -139 l 3 -139 l 72 192 l 632 192 l 644 251 l 144 251 l 194 486 l 129 486 l 235 993 l 308 993 l 335 1114 l 607 1114 l 525 729 l 1011 729 l 960 486 l 431 486 l 421 435 l 949 435 l 826 -139 z "},"%":{"ha":950,"x_min":1,"x_max":961,"o":"m 506 -274 l 168 -274 l 463 1108 l 800 1108 l 506 -274 m 339 788 l 1 788 l 1 1111 l 339 1111 l 339 788 m 961 -279 l 624 -279 l 624 44 l 961 44 l 961 -279 z "},"&":{"ha":988,"x_min":4,"x_max":1058,"o":"m 567 804 l 415 804 l 465 1038 l 617 1038 l 567 804 m 356 804 l 206 804 l 256 1038 l 406 1038 l 356 804 m 846 -144 l 653 -144 l 624 -283 l 271 -283 l 300 -144 l 4 -144 l 193 744 l 628 744 l 707 1113 l 921 1114 l 865 856 l 1058 854 l 976 467 l 360 467 l 347 407 l 964 407 l 918 196 l 301 196 l 289 136 l 906 136 l 846 -144 z "},"'":{"ha":314,"x_min":-1,"x_max":336,"o":"m 336 597 l 196 796 l -1 793 l -1 1117 l 336 1117 l 336 597 z "},"(":{"ha":490,"x_min":-1,"x_max":488,"o":"m 486 -549 l -1 -549 l -1 1267 l 486 1267 l 488 963 l 338 963 l 338 -275 l 488 -275 l 486 -549 z "},")":{"ha":521,"x_min":3,"x_max":492,"o":"m 492 -553 l 4 -553 l 3 -279 l 153 -279 l 153 958 l 3 958 l 4 1263 l 492 1263 l 492 -553 z "},"*":{"ha":2389,"x_min":25,"x_max":2478,"o":"m 2006 1158 q 1949 1190 1979 1179 q 1860 1133 1886 1190 q 1840 1065 1850 1099 q 1808 1190 1808 1183 q 1828 1254 1808 1221 q 1883 1293 1850 1293 q 1946 1250 1907 1293 q 2006 1158 1985 1207 m 1958 1206 q 1922 1244 1942 1225 q 1885 1264 1903 1264 q 1845 1235 1865 1264 q 1825 1188 1825 1206 q 1840 1117 1825 1189 q 1928 1210 1857 1210 q 1958 1206 1942 1210 m 2478 -143 q 2454 -237 2478 -187 q 2426 -286 2440 -261 q 2426 -333 2429 -306 q 2082 -579 2393 -447 q 2190 -490 2136 -535 q 2261 -325 2261 -419 q 2204 -209 2261 -256 q 2053 -162 2147 -162 q 1964 -176 1996 -162 q 1914 -200 1939 -189 q 2190 -35 1985 -28 q 2224 -21 2201 -35 q 2269 -7 2247 -7 q 2336 -35 2303 -7 q 2389 -62 2369 -62 q 2446 -87 2414 -62 q 2478 -143 2478 -112 m 2442 -182 q 2375 -100 2442 -100 q 2242 -183 2304 -100 q 2289 -240 2275 -207 q 2343 -228 2315 -228 q 2417 -271 2400 -228 q 2442 -182 2442 -208 m 2340 -69 q 2267 -43 2301 -43 q 2175 -79 2218 -43 q 2124 -149 2138 -110 q 2217 -174 2182 -149 q 2340 -69 2275 -106 m 2169 -50 q 2149 -43 2156 -43 q 2053 -72 2100 -43 q 1969 -162 2001 -106 q 2051 -142 2000 -142 q 2103 -143 2104 -142 q 2117 -112 2106 -142 q 2169 -50 2128 -82 m 2401 -319 q 2388 -278 2401 -297 q 2356 -260 2375 -260 q 2317 -266 2325 -260 q 2308 -289 2308 -272 q 2308 -297 2308 -292 q 2310 -306 2310 -301 q 2217 -499 2310 -394 q 2349 -415 2326 -435 q 2401 -319 2401 -374 m 1985 835 q 1975 789 1985 817 q 1965 763 1965 761 q 1893 617 1940 643 q 1800 588 1847 603 q 1772 561 1786 575 q 1667 510 1735 533 q 1711 397 1711 450 q 1593 217 1711 296 q 1425 115 1508 165 q 1418 125 1424 121 q 1481 192 1457 143 q 1501 267 1501 232 q 1456 367 1501 314 q 1397 274 1425 300 q 1365 251 1382 263 q 1356 208 1356 243 q 1392 88 1356 136 q 1494 33 1431 33 q 1614 94 1571 33 q 1674 210 1643 151 q 1776 271 1711 271 q 1850 221 1832 271 q 1861 121 1861 190 q 1851 -19 1861 3 q 1735 157 1822 157 q 1646 108 1682 157 q 1581 1 1613 56 q 1465 -101 1532 -68 q 1585 -211 1514 -165 q 1767 -269 1676 -269 q 1849 -250 1813 -269 q 1908 -210 1878 -231 l 1847 -312 q 1725 -403 1829 -337 q 1557 -476 1607 -476 q 1517 -467 1556 -476 q 1386 -457 1478 -457 q 1292 -512 1339 -457 q 1244 -619 1244 -567 q 1290 -708 1244 -649 q 1186 -618 1222 -682 q 1156 -511 1156 -565 q 1172 -429 1156 -479 q 1224 -328 1192 -367 q 1138 -304 1160 -304 q 1126 -306 1133 -304 q 1114 -307 1119 -307 q 1085 -301 1104 -307 q 1025 -271 1054 -286 q 932 -250 983 -250 q 713 -322 790 -250 q 642 -492 642 -387 q 664 -585 642 -524 q 553 -439 604 -525 q 492 -265 492 -335 q 528 -181 492 -226 q 626 -126 571 -126 l 756 -126 q 775 -93 775 -107 q 719 -24 775 -64 q 617 74 646 29 q 557 38 581 38 q 478 157 478 56 q 490 218 478 178 q 499 283 501 258 q 463 185 475 260 q 435 71 449 99 q 342 17 408 17 q 290 46 315 17 q 256 150 256 85 q 258 170 256 149 q 261 217 261 192 q 281 158 271 188 q 367 121 303 121 q 432 174 432 121 q 377 302 432 215 q 322 474 322 389 q 361 606 322 540 q 483 751 397 665 q 444 749 468 754 q 414 743 421 743 q 334 755 389 743 q 261 767 279 767 q 156 708 211 767 q 93 561 93 642 q 99 515 93 539 q 47 639 71 550 q 25 774 25 719 q 74 943 25 878 q 174 1018 110 990 q 257 1046 215 1032 q 289 1079 267 1049 q 335 1104 308 1104 q 404 1075 350 1104 q 499 1025 482 1032 l 550 1025 q 606 1113 551 1072 q 709 1158 653 1147 q 818 1203 765 1169 q 910 1231 863 1231 q 980 1210 926 1231 q 1060 1190 1033 1190 q 1253 1244 1128 1190 q 1399 1297 1378 1297 q 1519 1240 1478 1297 q 1557 1111 1557 1189 q 1549 1040 1557 1075 q 1656 998 1618 1040 q 1694 889 1694 956 q 1681 795 1694 828 q 1656 732 1668 763 q 1686 729 1668 732 q 1717 726 1704 726 q 1843 768 1786 726 q 1911 899 1911 817 q 1894 974 1911 947 q 1847 1056 1851 1047 q 1985 835 1985 913 m 1682 901 q 1543 1031 1682 1006 q 1615 994 1579 1013 q 1661 901 1661 964 q 1606 763 1661 836 q 1631 751 1614 760 q 1664 814 1647 783 q 1682 901 1682 850 m 1535 1122 q 1485 1243 1535 1196 q 1394 1283 1443 1283 q 1332 1263 1365 1283 q 1383 1271 1358 1271 q 1474 1235 1438 1271 q 1511 1135 1511 1199 q 1473 997 1511 1072 q 1435 890 1435 922 q 1440 853 1435 872 q 1444 829 1444 835 q 1490 983 1444 900 q 1535 1122 1535 1067 m 1644 901 q 1599 979 1644 949 q 1618 925 1618 963 q 1568 804 1618 860 q 1589 789 1572 801 q 1622 833 1606 811 q 1644 901 1644 868 m 1558 932 q 1522 989 1558 971 q 1511 940 1511 947 q 1522 885 1511 929 q 1558 932 1558 913 m 1599 921 q 1564 989 1600 932 q 1581 936 1581 965 q 1536 846 1581 883 q 1549 829 1540 844 q 1599 921 1599 878 m 1492 1131 q 1459 1215 1492 1181 q 1376 1250 1426 1250 q 1317 1240 1358 1250 q 1456 1118 1456 1240 q 1427 1003 1456 1068 q 1399 913 1399 939 q 1425 835 1399 872 q 1415 888 1415 860 q 1453 1017 1415 936 q 1492 1131 1492 1099 m 1951 832 q 1928 932 1951 881 q 1869 767 1928 828 q 1697 700 1808 700 q 1549 774 1608 700 q 1492 938 1492 843 q 1458 860 1458 868 q 1549 763 1458 779 l 1549 747 l 1507 747 q 1408 789 1494 750 q 1449 744 1415 778 q 1465 681 1465 729 q 1444 614 1465 635 q 1475 585 1449 611 q 1507 567 1492 567 q 1520 569 1513 567 q 1532 572 1528 572 q 1494 718 1494 701 q 1500 726 1494 722 q 1507 733 1506 731 q 1543 603 1525 668 q 1650 538 1568 538 q 1758 599 1721 538 q 1682 671 1696 613 l 1697 671 q 1743 627 1714 644 q 1797 610 1772 610 q 1883 649 1839 610 q 1928 729 1928 689 q 1847 717 1879 717 l 1847 732 q 1951 832 1951 736 m 1351 1179 q 1336 1189 1347 1182 q 1222 1068 1222 1121 q 1250 1035 1222 1054 q 1278 1122 1250 1089 q 1351 1179 1294 1143 m 1378 1126 l 1378 1139 l 1364 1139 q 1301 1094 1333 1117 q 1268 1040 1268 1067 q 1301 1004 1268 1029 l 1301 1015 q 1300 1032 1300 1024 q 1322 1091 1300 1064 q 1378 1126 1344 1118 m 1435 1132 q 1389 1207 1435 1183 q 1325 1221 1361 1221 q 1265 1215 1338 1221 q 1349 1206 1326 1215 q 1399 1115 1399 1185 q 1383 1026 1399 1075 q 1368 949 1368 976 q 1414 814 1368 879 q 1378 913 1378 872 q 1406 1031 1378 949 q 1435 1132 1435 1113 m 1374 1097 q 1315 1033 1336 1079 q 1342 974 1315 1013 q 1360 1050 1342 1015 q 1374 1097 1376 1081 m 1290 1200 l 1275 1200 q 1165 1083 1208 1182 q 1199 1050 1165 1072 q 1221 1122 1200 1083 q 1290 1200 1246 1172 m 1189 1196 q 1100 1175 1144 1186 q 1014 1101 1065 1163 l 1014 1088 q 1189 1196 1069 1106 m 1161 1143 q 1128 1115 1131 1117 q 1110 1071 1114 1099 l 1147 1071 q 1161 1143 1147 1101 m 1090 1076 l 1090 1097 q 1049 1071 1081 1090 q 1090 1076 1060 1076 m 1450 675 q 1375 747 1446 747 q 1336 742 1386 747 q 1450 675 1426 742 m 1065 1179 l 1044 1181 q 899 1071 899 1149 q 912 1053 899 1065 q 939 1040 925 1040 q 1008 1071 969 1040 q 992 1097 992 1081 q 1065 1179 992 1140 m 1428 638 q 1398 690 1428 663 q 1343 717 1368 717 q 1317 710 1338 717 q 1418 614 1401 706 q 1428 638 1428 629 m 986 1196 q 919 1210 943 1210 q 839 1181 882 1210 q 792 1114 792 1149 q 798 1092 792 1100 q 811 1076 804 1085 q 824 1129 815 1114 q 868 1174 832 1144 l 890 1174 l 890 1158 q 839 1089 839 1136 q 864 1039 839 1058 q 903 1025 885 1025 q 908 1026 907 1025 l 922 1025 q 887 1047 901 1026 q 872 1089 872 1067 q 986 1196 872 1158 m 1694 396 q 1645 483 1694 450 q 1536 517 1596 517 q 1447 482 1481 517 q 1425 442 1425 457 q 1435 401 1428 436 q 1539 460 1482 460 q 1676 335 1649 460 q 1694 396 1694 378 m 1840 188 q 1761 240 1811 240 q 1682 176 1722 240 q 1721 209 1694 194 q 1768 224 1747 224 q 1840 188 1810 224 m 1338 679 q 1326 685 1333 681 l 1311 685 q 1338 679 1326 683 m 1382 596 q 1367 654 1382 632 q 1372 618 1372 640 q 1369 579 1372 586 q 1336 547 1365 572 q 1367 567 1351 557 q 1382 596 1382 578 m 1536 542 q 1458 554 1482 542 q 1413 525 1438 554 q 1389 479 1389 496 q 1408 424 1389 451 q 1442 509 1408 476 q 1536 542 1475 542 m 1847 68 l 1844 108 l 1847 93 q 1768 197 1829 197 q 1711 176 1753 197 q 1800 165 1779 176 q 1847 68 1838 146 m 1649 318 q 1609 393 1649 356 q 1519 431 1569 431 q 1456 392 1492 431 q 1606 296 1606 392 q 1564 213 1606 253 q 1649 318 1649 235 m 776 1071 q 757 1113 757 1093 q 774 1164 757 1131 l 756 1164 q 689 1093 689 1126 q 704 1061 689 1075 q 722 1050 715 1050 q 750 1058 732 1050 q 776 1071 776 1071 m 1568 296 q 1497 376 1568 346 l 1482 376 q 1475 367 1481 374 q 1513 321 1497 358 q 1525 271 1525 292 q 1497 182 1525 224 q 1547 232 1522 207 q 1568 296 1568 260 m 719 1035 q 661 1092 661 1035 q 669 1119 661 1103 q 678 1143 676 1136 q 639 1075 639 1121 q 681 1021 639 1021 q 701 1024 697 1021 q 719 1035 711 1032 m 674 999 q 608 1068 608 1019 q 611 1097 608 1081 q 582 1061 596 1083 q 568 1033 568 1039 q 585 994 568 1018 q 611 971 601 971 q 674 999 633 971 m 1285 854 q 1093 1047 1285 1047 q 981 1026 1028 1047 q 900 1004 933 1004 q 831 1032 853 1004 q 792 1060 808 1060 q 674 961 749 1060 q 606 849 606 869 q 642 778 606 810 q 719 675 693 732 l 719 660 q 635 700 679 700 q 606 688 617 700 q 594 664 594 676 q 668 618 594 613 l 668 604 q 626 593 635 593 q 598 598 606 593 q 575 624 590 603 q 572 574 575 589 q 568 556 568 560 q 583 465 568 528 q 601 397 601 399 q 597 358 604 375 q 590 326 590 342 q 601 254 590 301 q 693 283 672 283 q 717 272 703 283 q 736 260 731 260 q 772 268 739 260 q 826 276 804 276 q 848 274 839 276 q 887 249 857 271 q 926 226 917 226 q 942 233 933 226 q 944 350 942 333 q 1018 424 958 414 q 1175 558 1175 449 q 1156 624 1175 593 q 1103 660 1135 660 q 1043 639 1079 660 q 1065 622 1065 632 q 982 574 1065 574 q 958 578 961 574 q 951 588 954 582 q 1024 633 1015 588 l 1039 633 q 1003 696 1018 654 q 1089 676 1065 676 q 1229 726 1174 676 q 1285 854 1285 776 m 1851 -271 q 1774 -286 1825 -278 q 1790 -333 1783 -299 q 1851 -271 1817 -310 m 1311 324 q 1265 449 1311 389 q 1306 332 1306 381 q 1260 233 1306 268 q 1161 188 1235 214 q 1069 140 1094 164 q 1215 172 1142 157 q 1311 324 1311 208 m 565 974 q 544 1015 561 979 q 513 1008 529 1008 q 429 1042 482 1008 q 356 1076 376 1076 q 303 1040 318 1076 q 438 1006 357 1036 q 565 974 519 976 m 1275 342 q 1256 418 1275 347 q 1218 269 1246 300 q 1149 240 1211 261 q 1049 150 1094 221 q 1142 217 1079 193 q 1233 253 1226 249 q 1275 342 1275 281 m 1768 -335 q 1754 -299 1768 -318 q 1699 -269 1733 -269 q 1692 -273 1696 -269 q 1686 -276 1689 -276 q 1703 -329 1701 -296 q 1701 -390 1701 -303 q 1746 -367 1724 -379 q 1768 -335 1768 -356 m 1232 399 q 1228 433 1232 417 q 1207 343 1228 364 q 1122 289 1164 315 q 1035 194 1058 246 q 1025 150 1014 150 q 1028 164 1028 153 l 1028 135 q 1081 242 1028 210 q 1179 286 1129 264 q 1232 399 1232 319 m 668 722 q 626 746 647 733 q 592 789 606 758 l 592 763 q 626 736 603 743 q 668 722 665 724 m 1368 -44 q 1294 79 1368 17 q 1285 74 1292 74 l 1285 -76 q 1301 -78 1292 -76 q 1315 -79 1310 -79 q 1368 -44 1368 -74 m 1685 -342 q 1583 -225 1685 -272 q 1608 -301 1608 -262 q 1543 -442 1608 -374 q 1581 -446 1589 -446 q 1655 -416 1625 -446 q 1685 -342 1685 -386 m 582 681 q 576 708 582 674 q 569 789 569 743 q 539 690 539 708 q 556 608 539 654 q 582 681 557 614 m 607 951 q 369 994 481 964 q 261 1021 272 1021 q 108 932 194 1021 q 42 772 42 863 q 47 690 42 754 q 115 911 47 824 q 264 993 178 993 q 393 960 313 993 q 511 926 474 926 q 561 936 533 926 q 607 951 607 951 m 1582 -293 q 1560 -219 1582 -249 q 1507 -174 1546 -200 q 1517 -236 1517 -204 q 1482 -339 1517 -294 q 1383 -394 1447 -383 q 1465 -429 1453 -429 q 1546 -388 1510 -429 q 1582 -293 1582 -347 m 1492 -204 q 1469 -133 1492 -153 q 1383 -96 1447 -112 q 1408 -165 1408 -146 q 1387 -227 1408 -200 q 1332 -257 1365 -254 q 1290 -324 1328 -297 q 1321 -335 1306 -329 q 1364 -343 1344 -343 q 1456 -303 1419 -343 q 1492 -204 1492 -264 m 592 922 q 548 914 585 922 q 488 906 511 906 q 376 935 449 906 q 267 964 304 964 q 132 890 196 964 q 65 710 65 811 q 68 684 65 694 q 72 656 71 674 q 124 843 72 763 q 275 933 181 933 q 358 905 318 933 q 451 876 397 876 q 547 896 507 876 q 592 922 569 908 m 1382 -157 q 1357 -101 1382 -121 q 1278 -103 1317 -101 q 1214 -153 1257 -106 q 1260 -206 1236 -178 q 1308 -233 1285 -233 q 1367 -201 1344 -233 q 1382 -157 1382 -178 m 569 881 q 511 860 540 869 q 442 850 482 850 q 352 874 401 850 q 282 897 303 897 q 161 837 221 897 q 92 693 101 776 l 92 665 q 203 833 122 778 q 283 867 251 867 q 378 840 329 867 q 447 814 426 814 q 515 842 475 814 q 569 881 567 879 m 556 840 q 444 793 481 793 q 360 815 404 793 q 289 838 315 838 q 181 781 233 838 q 114 671 138 733 q 189 760 136 729 q 261 783 228 783 q 311 778 265 783 q 390 772 357 772 q 556 840 514 772 m 597 182 q 597 226 592 201 q 565 285 565 253 q 575 344 565 308 q 582 388 585 376 q 546 518 564 453 q 519 710 519 622 q 492 607 492 617 q 513 510 492 583 q 535 335 535 438 q 549 359 542 347 q 575 382 557 371 q 558 310 568 342 q 549 276 549 279 q 582 182 549 231 l 597 182 m 1311 -261 q 1247 -235 1265 -253 q 1189 -153 1228 -218 q 1115 -168 1143 -168 q 1154 -247 1135 -207 q 1243 -300 1190 -300 q 1311 -261 1275 -300 m 501 389 q 487 531 501 458 q 472 604 472 603 q 493 706 472 626 q 475 649 483 676 q 461 596 461 607 q 478 496 461 583 q 494 357 494 408 q 489 300 494 325 q 501 389 501 332 m 858 213 q 639 226 696 213 q 622 207 635 221 q 683 174 642 174 q 779 192 726 174 q 858 213 838 210 m 468 347 q 451 476 468 408 q 435 568 435 543 q 447 649 435 599 q 411 475 411 550 q 432 356 411 450 q 458 243 450 267 q 468 347 468 308 m 1022 -126 q 976 -54 1022 -115 l 976 -82 q 983 -122 976 -83 q 1014 -194 988 -147 q 1018 -155 1014 -182 q 1022 -126 1022 -128 m 1147 -286 q 1108 -200 1129 -244 q 1039 -143 1088 -156 q 1032 -183 1036 -169 q 1071 -265 1032 -235 q 1132 -290 1101 -290 q 1147 -286 1126 -290 m 442 685 q 376 569 410 628 q 349 475 349 517 q 376 349 349 421 q 436 243 403 282 q 406 371 433 285 q 378 485 378 451 q 399 596 378 546 q 442 685 419 640 m 881 1 q 800 54 849 40 q 725 67 763 60 q 678 99 688 74 q 731 89 699 94 q 647 140 707 113 q 633 126 642 140 q 625 106 625 113 q 706 18 625 51 q 819 -7 767 -7 q 881 1 817 -7 m 1307 -400 q 1285 -385 1301 -396 q 1243 -457 1272 -397 q 1208 -562 1208 -526 q 1214 -610 1208 -574 q 1240 -493 1214 -556 q 1307 -400 1268 -424 m 1347 -442 q 1322 -419 1332 -426 q 1254 -522 1289 -471 q 1232 -571 1232 -557 q 1233 -578 1232 -574 q 1233 -585 1233 -582 q 1347 -442 1271 -469 m 1260 -368 q 1253 -365 1254 -365 q 1244 -358 1253 -365 q 1175 -533 1175 -485 q 1181 -561 1175 -546 q 1189 -590 1188 -582 q 1260 -368 1189 -457 m 607 89 l 607 160 q 574 157 576 157 q 540 181 550 157 q 531 283 531 206 q 517 231 526 261 q 511 197 511 211 q 539 106 511 138 q 583 81 560 81 q 607 89 589 81 m 442 160 q 412 110 439 129 q 357 90 385 90 q 278 135 322 90 q 356 38 300 50 q 414 83 386 38 q 442 160 439 124 m 915 -200 q 819 -168 868 -185 q 703 -153 764 -153 q 574 -191 624 -153 q 525 -286 525 -229 q 565 -429 525 -358 q 553 -337 553 -382 q 718 -162 553 -162 q 824 -178 754 -162 q 915 -200 869 -189 m 864 -203 l 742 -186 q 625 -237 671 -197 q 575 -343 575 -281 q 583 -381 575 -343 q 592 -442 590 -418 q 790 -203 592 -203 q 814 -206 801 -203 q 833 -210 826 -210 q 864 -203 846 -210 m 910 -240 q 859 -231 901 -237 q 811 -224 817 -224 q 653 -303 704 -224 q 615 -424 615 -357 q 626 -508 615 -456 q 672 -324 626 -396 q 844 -233 731 -233 q 910 -240 875 -233 m 908 1026 l 894 1026 q 908 1026 908 1028 m 1065 763 q 1039 772 1063 763 q 997 781 1015 781 q 956 766 971 781 q 942 740 942 751 q 956 715 942 725 q 982 696 969 706 q 964 698 976 696 q 940 700 951 700 q 868 643 878 700 q 844 656 865 646 q 815 667 822 667 q 744 608 775 667 q 815 742 761 692 q 947 793 868 793 q 1065 763 1017 793 m 1003 629 q 961 610 981 610 q 913 622 926 610 q 894 649 908 625 q 918 657 897 649 q 932 651 918 657 q 960 646 946 646 q 1003 657 981 646 l 1003 629 m 683 675 q 642 650 668 650 q 629 649 622 650 q 611 665 625 649 l 611 679 q 683 675 606 679 m 833 458 q 800 488 811 488 q 790 481 797 488 q 772 464 781 469 q 814 510 792 510 q 833 500 817 510 l 833 458 m 824 424 q 744 357 801 357 q 699 381 724 357 q 668 429 675 404 q 699 407 694 407 q 721 419 708 407 q 742 431 733 431 q 769 417 750 431 q 799 404 789 404 q 824 424 804 404 m 299 518 q 274 442 299 475 q 199 404 244 404 q 99 500 131 404 q 158 494 133 494 q 247 528 221 494 q 272 649 272 563 q 299 518 299 585 m 267 538 q 232 494 260 513 q 169 476 204 476 q 133 481 154 476 q 190 460 165 460 q 267 538 247 460 m 283 515 q 251 465 278 489 q 192 440 225 440 q 143 449 176 440 q 193 424 186 424 q 263 463 236 424 q 283 515 279 488 z "},"+":{"ha":906,"x_min":3,"x_max":943,"o":"m 943 213 l 943 -82 l 622 -83 l 622 -379 l 328 -379 q 328 -81 325 -81 l 3 -82 l 3 213 l 328 214 l 328 511 l 622 511 l 622 214 l 943 213 z "},",":{"ha":374,"x_min":-1,"x_max":336,"o":"m 336 -469 l 196 -269 l -1 -274 l -1 50 l 336 50 l 336 -469 z "},"-":{"ha":565,"x_min":3,"x_max":565,"o":"m 565 -82 l 3 -82 l 3 213 l 565 213 l 565 -82 z "},".":{"ha":374,"x_min":-1,"x_max":336,"o":"m 336 -274 l -1 -274 l -1 50 l 336 50 l 336 -274 z "},"/":{"ha":593,"x_min":4,"x_max":636,"o":"m 342 -274 l 4 -274 l 299 1108 l 636 1108 l 342 -274 z "},":":{"ha":364,"x_min":8,"x_max":346,"o":"m 346 251 l 8 251 l 8 575 l 346 575 l 346 251 m 346 -274 l 8 -274 l 8 50 l 346 50 l 346 -274 z "},";":{"ha":360,"x_min":-1,"x_max":336,"o":"m 336 -469 l 201 -269 l -1 -274 l -1 50 l 336 50 l 336 -469 m 336 176 l -1 176 l -1 500 l 336 500 l 336 176 z "},"=":{"ha":578,"x_min":3,"x_max":565,"o":"m 565 185 l 3 185 l 3 479 l 565 479 l 565 185 m 565 -176 l 3 -176 l 3 118 l 565 118 l 565 -176 z "},"?":{"ha":1381,"x_min":4,"x_max":1479,"o":"m 747 783 l 511 783 l 581 1115 l 817 1115 l 747 783 m 1304 197 l 631 197 l 615 128 l 90 128 l 154 425 l 932 425 l 944 486 l 158 486 l 210 731 l 786 731 l 868 1115 l 1385 1115 l 1365 1019 l 1479 1019 l 1304 197 m 458 783 l 222 783 l 292 1115 l 528 1115 l 458 783 m 529 -276 l 4 -276 l 75 57 l 600 57 l 529 -276 z "},"@":{"ha":1528,"x_min":3,"x_max":1636,"o":"m 1408 1044 q 1636 478 1636 807 q 1386 -111 1636 129 q 819 -339 1149 -339 q 231 -89 471 -339 q 3 478 3 149 q 253 1067 3 826 q 819 1294 490 1294 q 1408 1044 1168 1294 m 874 922 l 719 922 l 679 732 l 832 732 l 874 922 m 682 922 l 543 922 l 501 732 l 640 732 l 682 922 m 1296 847 l 1233 847 l 1256 947 l 1028 947 l 1006 847 l 881 847 l 849 694 l 492 694 l 444 465 l 911 465 l 903 431 l 438 431 l 346 -7 l 811 -7 l 800 -57 l 964 -57 l 975 -6 l 1039 -6 l 1135 454 l 1214 454 l 1296 847 m 867 251 l 857 213 l 575 213 l 585 251 l 867 251 z "},"A":{"ha":1265,"x_min":-1,"x_max":1360,"o":"m 711 813 q 690 794 707 794 l 479 794 q 465 813 463 794 l 522 1076 q 542 1093 525 1093 l 753 1093 q 768 1076 771 1093 l 711 813 m 681 829 l 729 1058 l 553 1058 l 504 829 l 681 829 m 447 813 q 426 794 443 794 l 233 794 q 219 813 217 794 l 276 1076 q 296 1093 279 1093 l 489 1093 q 504 1076 507 1093 l 447 813 m 417 829 l 465 1058 l 307 1058 l 258 829 l 417 829 m 1239 428 q 1218 410 1238 410 l 1129 410 l 997 -208 q 975 -226 993 -226 l 906 -226 l 894 -281 q 872 -299 890 -299 l 646 -299 q 633 -281 629 -299 l 644 -228 l 15 -228 q 3 -210 -1 -228 l 131 394 q 151 411 135 411 l 779 411 l 782 425 l 153 425 q 140 443 136 425 l 207 760 q 228 776 211 776 l 704 776 l 746 971 q 765 988 750 988 l 921 988 l 947 1110 q 967 1126 951 1126 l 1282 1126 q 1297 1110 1301 1126 l 1271 988 l 1340 988 q 1356 971 1360 988 l 1239 428 m 1208 444 l 1317 953 l 1246 953 q 1233 971 1229 953 l 1258 1092 l 978 1092 l 953 971 q 931 953 949 953 l 776 953 l 735 760 q 714 742 731 742 l 239 742 l 178 460 l 806 460 q 821 443 825 460 l 810 394 q 789 376 806 376 l 163 376 l 40 -193 l 668 -193 q 683 -210 686 -193 l 672 -264 l 864 -264 l 875 -208 q 896 -192 878 -192 l 967 -192 l 1097 428 q 1118 444 1101 444 l 1208 444 m 746 92 q 724 74 742 74 l 335 74 q 322 92 318 74 l 335 149 q 354 165 338 165 l 743 165 q 758 149 761 165 l 746 92 m 715 108 l 719 131 l 365 131 l 361 108 l 715 108 z "},"B":{"ha":1225,"x_min":-11,"x_max":1317,"o":"m 1313 1106 l 1254 832 q 1238 818 1251 818 l 1061 818 q 1044 840 1040 818 l 1103 1114 q 1119 1126 1106 1126 l 1296 1126 q 1313 1106 1317 1126 m 1275 1092 l 1133 1092 l 1082 853 l 1224 853 l 1275 1092 m 1065 1106 l 1007 832 q 990 818 1004 818 l 813 818 q 796 840 792 818 l 854 1114 q 871 1126 857 1126 l 1049 1126 q 1065 1106 1069 1126 m 1028 1092 l 885 1092 l 833 853 l 976 853 l 1028 1092 m 1239 761 l 1017 -285 q 1000 -299 1014 -299 l 10 -299 q -7 -276 -11 -299 l 64 54 q 81 67 67 67 l 792 67 l 800 103 l 96 103 q 79 125 75 103 l 131 372 q 147 385 133 385 l 858 385 l 867 421 l 163 421 q 146 443 142 421 l 289 1114 q 306 1126 292 1126 l 783 1126 q 800 1106 804 1126 l 731 782 l 1222 782 q 1239 761 1243 782 m 1201 747 l 710 747 q 693 769 689 747 l 763 1092 l 319 1092 l 183 456 l 888 456 q 904 435 908 456 l 889 364 q 872 350 886 350 l 161 350 l 117 138 l 821 138 q 838 117 842 138 l 822 46 q 806 32 819 32 l 94 32 l 31 -264 l 986 -264 l 1201 747 z "},"C":{"ha":1199,"x_min":7,"x_max":1289,"o":"m 708 746 l 710 746 l 710 747 l 708 746 m 1285 992 l 1164 422 q 1147 408 1161 408 l 1078 408 l 1021 142 q 1004 128 1018 128 l 715 128 q 699 150 694 128 l 754 408 l 440 408 l 367 64 l 1089 64 q 1106 43 1110 64 l 1036 -283 q 1019 -297 1033 -297 l 28 -297 q 11 -275 7 -297 l 225 733 q 238 746 228 744 q 232 765 229 751 l 293 1053 q 310 1065 296 1065 l 506 1065 q 522 1044 526 1065 l 461 757 q 454 746 460 750 l 483 746 q 478 765 475 751 l 539 1053 q 556 1065 542 1065 l 760 1065 q 776 1044 781 1065 l 769 1008 q 781 1013 774 1013 l 882 1013 l 903 1114 q 919 1126 906 1126 l 1204 1126 q 1221 1106 1225 1126 l 1201 1013 l 1268 1013 q 1285 992 1289 1013 m 739 1031 l 569 1031 l 515 778 l 685 778 l 739 1031 m 485 1031 l 324 1031 l 269 778 l 431 778 l 485 1031 m 1247 978 l 1181 978 q 1164 1000 1160 978 l 1183 1092 l 933 1092 l 913 992 q 896 978 910 978 l 794 978 l 740 725 q 724 711 738 711 l 256 711 l 49 -262 l 1006 -262 l 1068 29 l 346 29 q 329 51 325 29 l 410 431 q 426 443 413 443 l 775 443 q 792 422 796 443 l 736 163 l 990 163 l 1047 431 q 1064 443 1050 443 l 1133 443 l 1247 978 z "},"D":{"ha":1233,"x_min":3,"x_max":1325,"o":"m 1321 1079 l 1261 796 q 1244 782 1258 782 l 1038 782 q 1021 804 1017 782 l 1081 1088 q 1097 1100 1083 1100 l 1304 1100 q 1321 1079 1325 1100 m 1283 1065 l 1111 1065 l 1058 817 l 1231 817 l 1283 1065 m 1060 1079 l 1000 796 q 983 782 997 782 l 788 782 q 771 804 767 782 l 831 1088 q 847 1100 833 1100 l 1043 1100 q 1060 1079 1064 1100 m 1022 1065 l 861 1065 l 808 817 l 969 817 l 1022 1065 m 1260 722 l 1046 -282 q 1029 -296 1043 -296 l 24 -296 q 7 -274 3 -296 l 303 1114 q 319 1126 306 1126 l 625 1126 q 642 1106 646 1126 l 621 1011 l 761 1011 q 778 990 782 1011 l 725 743 l 1243 743 q 1260 722 1264 743 m 1222 708 l 704 708 q 688 731 683 708 l 740 976 l 600 976 q 583 999 578 976 l 604 1092 l 333 1092 l 44 -261 l 1015 -261 l 1222 708 m 857 401 l 778 33 q 761 19 775 19 l 393 19 q 376 42 372 19 l 456 410 q 472 422 458 422 l 840 422 q 857 401 861 422 m 819 388 l 486 388 l 414 54 l 747 54 l 819 388 z "},"E":{"ha":1244,"x_min":1,"x_max":1338,"o":"m 1333 1006 l 1206 406 q 1189 392 1203 392 l 818 392 l 806 336 l 1164 336 q 1181 315 1185 336 l 1143 135 q 1126 121 1140 121 l 763 121 l 753 79 q 736 65 750 65 l 454 65 q 438 88 433 65 l 444 119 l 404 119 l 385 32 l 1097 32 q 1114 11 1118 32 l 1051 -283 q 1035 -297 1049 -297 l 22 -297 q 6 -275 1 -297 l 131 317 q 147 329 133 329 l 478 329 l 492 393 l 168 393 q 151 415 147 393 l 279 1015 q 296 1028 282 1028 l 608 1028 l 626 1114 q 643 1126 629 1126 l 914 1126 q 931 1106 935 1126 l 914 1028 l 1317 1026 q 1333 1006 1338 1026 m 1296 992 l 893 993 q 876 1015 872 993 l 893 1092 l 657 1092 l 639 1007 q 622 993 636 993 l 310 993 l 189 428 l 513 428 q 529 407 533 428 l 508 308 q 492 294 506 294 l 161 294 l 43 -262 l 1021 -262 l 1076 -3 l 364 -3 q 347 19 343 -3 l 374 142 q 390 154 376 154 l 467 154 q 483 133 489 154 l 475 100 l 722 100 l 732 143 q 749 156 735 156 l 1113 156 l 1143 301 l 785 301 q 768 324 764 301 l 788 414 q 804 426 790 426 l 1175 426 l 1296 992 z "},"F":{"ha":1301,"x_min":-11,"x_max":1399,"o":"m 1394 993 l 1272 421 q 1256 407 1269 407 l 672 407 l 663 358 l 1226 358 q 1243 338 1247 358 l 1188 75 q 1171 61 1185 61 l 600 61 l 526 -283 q 510 -297 524 -297 l 10 -297 q -7 -275 -11 -297 l 104 250 q 121 263 107 263 l 333 263 l 364 407 l 158 407 q 142 429 138 407 l 264 1001 q 281 1014 267 1014 l 504 1014 l 524 1108 q 540 1121 526 1121 l 815 1121 q 832 1100 836 1121 l 814 1014 l 1378 1014 q 1394 993 1399 1014 m 1357 979 l 793 979 q 776 1001 772 979 l 794 1086 l 554 1086 l 535 993 q 518 979 532 979 l 294 979 l 179 442 l 385 442 q 401 421 406 442 l 364 242 q 347 228 361 228 l 135 228 l 31 -262 l 496 -262 l 569 83 q 586 96 572 96 l 1157 96 l 1206 324 l 642 324 q 625 344 621 324 l 642 428 q 658 442 644 442 l 1242 442 l 1357 979 z "},"G":{"ha":1167,"x_min":7,"x_max":1254,"o":"m 1250 1100 l 1181 772 q 1164 758 1178 758 l 935 758 q 918 781 914 758 l 988 1108 q 1004 1121 990 1121 l 1233 1121 q 1250 1100 1254 1121 m 1213 1086 l 1018 1086 l 956 793 l 1150 793 l 1213 1086 m 953 1100 l 883 772 q 867 758 881 758 l 647 758 q 631 781 626 758 l 700 1108 q 717 1121 703 1121 l 936 1121 q 953 1100 957 1121 m 915 1086 l 731 1086 l 668 793 l 853 793 l 915 1086 m 1157 717 l 1088 393 q 1071 379 1085 379 l 517 379 l 444 43 l 654 43 l 668 104 l 581 104 q 564 126 560 104 l 607 329 q 624 342 610 342 l 1079 342 q 1096 321 1100 342 l 968 -283 q 951 -297 965 -297 l 28 -297 q 11 -275 7 -297 l 150 379 l 64 379 q 47 401 43 379 l 197 1108 q 214 1121 200 1121 l 653 1121 q 669 1100 674 1121 l 593 738 l 1140 738 q 1157 717 1161 738 m 1119 703 l 572 703 q 556 725 551 703 l 632 1086 l 228 1086 l 85 414 l 171 414 q 188 393 192 414 l 49 -262 l 938 -262 l 1058 307 l 638 307 l 601 139 l 689 139 q 706 118 710 139 l 685 22 q 668 8 682 8 l 424 8 q 407 31 403 8 l 486 401 q 503 414 489 414 l 1057 414 l 1119 703 z "},"H":{"ha":1100,"x_min":6,"x_max":1183,"o":"m 1179 947 l 1068 424 l 1131 424 q 1147 403 1151 424 l 1082 94 q 1065 81 1079 81 l 972 81 l 910 -212 q 893 -226 907 -226 l 621 -226 q 604 -204 600 -226 l 665 81 l 511 81 l 433 -285 q 417 -299 431 -299 l 26 -299 q 10 -276 6 -299 l 306 1121 q 322 1133 308 1133 l 713 1133 q 729 1113 733 1133 l 583 424 l 738 424 l 850 956 q 867 968 853 968 l 1163 968 q 1179 947 1183 968 m 1142 933 l 881 933 l 768 403 q 751 389 765 389 l 563 389 q 546 411 542 389 l 692 1099 l 336 1099 l 47 -264 l 403 -264 l 481 103 q 497 115 483 115 l 686 115 q 703 94 707 115 l 642 -192 l 879 -192 l 942 103 q 958 115 944 115 l 1051 115 l 1110 389 l 1047 389 q 1031 411 1026 389 l 1142 933 z "},"I":{"ha":1161,"x_min":-7,"x_max":1249,"o":"m 1244 994 l 1178 679 q 1161 665 1175 665 l 949 665 q 932 688 928 665 l 999 1003 q 1015 1015 1001 1015 l 1228 1015 q 1244 994 1249 1015 m 1207 981 l 1029 981 l 969 700 l 1147 700 l 1207 981 m 961 994 l 894 679 q 878 665 892 665 l 665 665 q 649 688 644 665 l 715 1003 q 732 1015 718 1015 l 944 1015 q 961 994 965 1015 m 924 981 l 746 981 l 686 700 l 864 700 l 924 981 m 1164 617 l 1108 353 q 1092 339 1106 339 l 728 339 l 682 131 l 1015 131 q 1032 110 1036 131 l 975 -162 q 958 -176 972 -176 l 618 -176 l 594 -282 q 578 -296 592 -296 l 294 -296 q 278 -274 274 -296 l 299 -176 l 14 -176 q -3 -154 -7 -176 l 54 118 q 71 131 57 131 l 340 131 l 386 339 l 124 339 q 107 361 103 339 l 265 1110 q 282 1122 268 1122 l 683 1122 q 700 1101 704 1122 l 601 638 l 1147 638 q 1164 617 1168 638 m 1126 603 l 581 603 q 564 625 560 603 l 663 1088 l 296 1088 l 144 374 l 407 374 q 424 353 428 374 l 371 110 q 354 96 368 96 l 85 96 l 35 -142 l 321 -142 q 338 -162 342 -142 l 315 -261 l 564 -261 l 588 -154 q 604 -142 590 -142 l 944 -142 l 994 96 l 661 96 q 644 118 640 96 l 697 361 q 714 374 700 374 l 1078 374 l 1126 603 z "},"J":{"ha":1150,"x_min":11,"x_max":1236,"o":"m 685 1007 l 618 690 q 601 676 615 676 l 390 676 q 374 699 369 676 l 440 1015 q 457 1028 443 1028 l 668 1028 q 685 1007 689 1028 m 647 993 l 471 993 l 411 711 l 588 711 l 647 993 m 415 1007 l 349 690 q 332 676 346 676 l 121 676 q 104 699 100 676 l 171 1015 q 188 1028 174 1028 l 399 1028 q 415 1007 419 1028 m 378 993 l 201 993 l 142 711 l 318 711 l 378 993 m 1232 1101 l 939 -283 q 922 -297 936 -297 l 32 -297 q 15 -275 11 -297 l 113 183 q 129 196 115 196 l 526 196 q 543 175 547 196 l 519 68 l 672 68 l 740 385 l 58 385 q 42 407 38 385 l 94 653 q 111 665 97 665 l 636 665 l 710 1015 q 726 1028 713 1028 l 889 1028 l 906 1110 q 922 1122 908 1122 l 1215 1122 q 1232 1101 1236 1122 m 1194 1088 l 936 1088 l 919 1007 q 903 993 917 993 l 740 993 l 667 644 q 650 631 664 631 l 125 631 l 79 419 l 761 419 q 778 399 782 419 l 703 47 q 686 33 700 33 l 499 33 q 482 56 476 33 l 506 161 l 143 161 l 53 -262 l 908 -262 l 1194 1088 z "},"K":{"ha":1297,"x_min":-10,"x_max":1389,"o":"m 947 746 l 917 721 l 942 721 l 947 746 m 1381 1101 l 992 782 l 1275 782 q 1292 761 1296 782 l 1069 -285 q 1053 -299 1067 -299 l 738 -299 q 721 -276 717 -299 l 790 46 l 361 46 l 290 -285 q 274 -299 288 -299 l 11 -299 q -6 -276 -10 -299 l 290 1119 q 307 1132 293 1132 l 592 1132 q 608 1111 613 1132 l 531 742 l 997 1129 q 1008 1132 1000 1132 l 1369 1132 q 1389 1117 1389 1132 q 1381 1101 1389 1108 m 1319 1097 l 1014 1097 l 514 682 q 500 676 507 676 q 486 700 481 676 l 571 1097 l 321 1097 l 32 -264 l 260 -264 l 331 68 q 347 81 333 81 l 811 81 q 828 60 832 81 l 758 -264 l 1039 -264 l 1254 747 l 983 747 l 972 700 q 956 686 969 686 l 868 686 q 847 701 847 686 q 857 718 847 710 l 1319 1097 z "},"L":{"ha":1225,"x_min":3,"x_max":1317,"o":"m 1313 1103 l 1242 774 q 1225 760 1239 760 l 992 760 q 975 782 971 760 l 1046 1111 q 1063 1124 1049 1124 l 1296 1124 q 1313 1103 1317 1124 m 1275 1089 l 1076 1089 l 1013 794 l 1211 794 l 1275 1089 m 1028 1103 l 957 774 q 940 760 954 760 l 706 760 q 689 782 685 760 l 760 1111 q 776 1124 763 1124 l 1011 1124 q 1028 1103 1032 1124 m 990 1089 l 790 1089 l 726 794 l 926 794 l 990 1089 m 1147 324 l 1036 -196 q 1019 -210 1033 -210 l 332 -210 l 317 -282 q 300 -296 314 -296 l 24 -296 q 7 -274 3 -296 l 303 1119 q 319 1132 306 1132 l 579 1132 q 596 1111 600 1132 l 433 344 l 1131 344 q 1147 324 1151 344 m 1110 310 l 413 310 q 396 332 392 310 l 558 1097 l 333 1097 l 44 -261 l 286 -261 l 301 -187 q 318 -175 304 -175 l 1006 -175 l 1110 310 z "},"M":{"ha":1567,"x_min":7,"x_max":1683,"o":"m 1679 1093 l 1608 760 q 1592 746 1606 746 l 1356 746 q 1339 768 1335 746 l 1410 1101 q 1426 1114 1413 1114 l 1663 1114 q 1679 1093 1683 1114 m 1642 1079 l 1440 1079 l 1376 781 l 1578 781 l 1642 1079 m 1390 1093 l 1319 760 q 1303 746 1317 746 l 1065 746 q 1049 768 1044 746 l 1119 1101 q 1136 1114 1122 1114 l 1374 1114 q 1390 1093 1394 1114 m 1353 1079 l 1150 1079 l 1086 781 l 1289 781 l 1353 1079 m 1599 717 l 1533 410 q 1517 396 1531 396 l 1453 396 l 1308 -283 q 1292 -297 1306 -297 l 985 -297 q 968 -275 964 -297 l 1111 393 l 961 393 l 817 -283 q 800 -297 814 -297 l 493 -297 q 476 -275 472 -297 l 619 396 l 504 396 l 360 -283 q 343 -297 357 -297 l 28 -297 q 11 -275 7 -297 l 308 1119 q 325 1132 311 1132 l 640 1132 q 657 1111 661 1132 l 638 1026 l 1074 1026 q 1090 1006 1094 1026 l 1033 738 l 1582 738 q 1599 717 1603 738 m 1561 703 l 1013 703 q 996 725 992 703 l 1053 992 l 617 992 q 600 1014 596 992 l 618 1097 l 339 1097 l 49 -262 l 329 -262 l 474 418 q 490 431 476 431 l 640 431 q 657 410 661 431 l 514 -262 l 786 -262 l 931 415 q 947 428 933 428 l 1132 428 q 1149 407 1153 428 l 1006 -262 l 1278 -262 l 1422 418 q 1439 431 1425 431 l 1503 431 l 1561 703 z "},"N":{"ha":1306,"x_min":-4,"x_max":1403,"o":"m 1399 1111 l 1328 776 q 1311 763 1325 763 l 1083 763 q 1067 785 1063 763 l 1138 1119 q 1154 1132 1140 1132 l 1382 1132 q 1399 1111 1403 1132 m 1361 1097 l 1168 1097 l 1104 797 l 1297 797 l 1361 1097 m 1118 1111 l 1047 776 q 1031 763 1044 763 l 793 763 q 776 785 772 763 l 847 1119 q 864 1132 850 1132 l 1101 1132 q 1118 1111 1122 1132 m 1081 1097 l 878 1097 l 814 797 l 1017 797 l 1081 1097 m 1315 724 l 1257 443 q 1240 429 1254 429 l 1201 429 l 1082 -129 q 1065 -143 1079 -143 l 582 -143 q 565 -121 561 -143 l 624 150 q 640 163 626 163 l 793 163 l 846 411 l 486 411 l 342 -269 q 325 -283 339 -283 l 17 -283 q 0 -261 -4 -283 l 293 1119 q 310 1132 296 1132 l 618 1132 q 635 1111 639 1132 l 619 1044 l 792 1044 q 808 1024 813 1044 l 749 744 l 1299 744 q 1315 724 1319 744 m 1278 710 l 728 710 q 711 732 707 710 l 771 1010 l 599 1010 q 582 1032 578 1010 l 596 1097 l 324 1097 l 38 -249 l 311 -249 l 456 433 q 472 446 458 446 l 867 446 q 883 425 888 446 l 824 142 q 807 128 821 128 l 654 128 l 603 -108 l 1051 -108 l 1171 451 q 1188 464 1174 464 l 1226 464 l 1278 710 z "},"O":{"ha":1213,"x_min":-7,"x_max":1303,"o":"m 1299 1103 l 1229 772 q 1213 758 1226 758 l 978 758 q 961 781 957 758 l 1031 1111 q 1047 1124 1033 1124 l 1282 1124 q 1299 1103 1303 1124 m 1261 1089 l 1061 1089 l 999 793 l 1199 793 l 1261 1089 m 1013 1103 l 943 772 q 926 758 940 758 l 692 758 q 675 781 671 758 l 744 1111 q 761 1124 747 1124 l 996 1124 q 1013 1103 1017 1124 m 975 1089 l 775 1089 l 713 793 l 913 793 l 975 1089 m 733 1103 l 664 772 q 647 758 661 758 l 239 758 q 222 781 218 758 l 292 1111 q 308 1124 294 1124 l 717 1124 q 733 1103 738 1124 m 696 1089 l 322 1089 l 260 793 l 633 793 l 696 1089 m 1219 729 l 1004 -283 q 988 -297 1001 -297 l 14 -297 q -3 -275 -7 -297 l 213 738 q 229 750 215 750 l 1203 750 q 1219 729 1224 750 m 1182 715 l 243 715 l 35 -262 l 974 -262 l 1182 715 m 875 415 l 779 -36 q 763 -50 776 -50 l 346 -50 q 329 -28 325 -50 l 425 424 q 442 436 428 436 l 858 436 q 875 415 879 436 m 838 401 l 456 401 l 367 -15 l 749 -15 l 838 401 z "},"P":{"ha":1146,"x_min":-10,"x_max":1232,"o":"m 1228 1111 l 1158 785 q 1142 771 1156 771 l 910 771 q 893 793 889 771 l 963 1119 q 979 1132 965 1132 l 1211 1132 q 1228 1111 1232 1132 m 1190 1097 l 993 1097 l 931 806 l 1128 806 l 1190 1097 m 944 1111 l 875 785 q 858 771 872 771 l 626 771 q 610 793 606 771 l 679 1119 q 696 1132 682 1132 l 928 1132 q 944 1111 949 1132 m 907 1097 l 710 1097 l 647 806 l 844 806 l 907 1097 m 1149 742 l 1033 200 q 1017 186 1031 186 l 386 186 l 286 -285 q 269 -299 283 -299 l 11 -299 q -6 -276 -10 -299 l 96 194 l 49 194 q 32 217 28 194 l 74 415 q 90 428 76 428 l 149 428 l 150 435 l 99 435 q 82 457 78 435 l 207 1042 q 224 1054 210 1054 l 278 1054 l 292 1119 q 308 1132 294 1132 l 558 1132 q 575 1111 579 1132 l 563 1054 l 636 1054 q 653 1033 657 1054 l 594 763 l 1132 763 q 1149 742 1153 763 m 1111 728 l 574 728 q 557 750 553 728 l 615 1019 l 542 1019 q 525 1042 519 1019 l 538 1097 l 322 1097 l 308 1033 q 292 1019 306 1019 l 238 1019 l 119 469 l 171 469 q 188 450 192 469 l 179 408 q 163 393 176 393 l 104 393 l 69 229 l 117 229 q 133 208 138 229 l 32 -264 l 256 -264 l 356 208 q 372 221 358 221 l 1003 221 l 1111 728 m 788 450 l 776 401 q 760 388 774 388 l 415 388 q 399 410 393 388 l 410 458 q 426 471 413 471 l 771 471 q 788 450 792 471 m 749 436 l 440 436 l 436 422 l 746 422 l 749 436 z "},"Q":{"ha":1201,"x_min":-11,"x_max":1292,"o":"m 1288 1111 l 1217 782 q 1200 768 1214 768 l 967 768 q 950 790 946 768 l 1021 1119 q 1038 1132 1024 1132 l 1271 1132 q 1288 1111 1292 1132 m 1250 1097 l 1051 1097 l 988 803 l 1186 803 l 1250 1097 m 1001 1111 l 931 782 q 914 768 928 768 l 679 768 q 663 790 658 768 l 733 1119 q 750 1132 736 1132 l 985 1132 q 1001 1111 1006 1132 m 964 1097 l 764 1097 l 700 803 l 900 803 l 964 1097 m 724 1111 l 653 782 q 636 768 650 768 l 211 768 q 194 790 190 768 l 265 1119 q 282 1132 268 1132 l 707 1132 q 724 1111 728 1132 m 686 1097 l 296 1097 l 232 803 l 622 803 l 686 1097 m 1206 729 l 1015 -168 q 999 -182 1013 -182 l 718 -182 l 696 -282 q 679 -296 693 -296 l 340 -296 q 324 -274 319 -296 l 343 -182 l 10 -182 q -7 -160 -11 -182 l 183 738 q 200 750 186 750 l 1189 750 q 1206 729 1210 750 m 1168 715 l 214 715 l 31 -147 l 365 -147 q 382 -168 386 -147 l 361 -261 l 665 -261 l 688 -160 q 704 -147 690 -147 l 985 -147 l 1168 715 m 885 400 l 792 -36 q 775 -50 789 -50 l 342 -50 q 325 -28 321 -50 l 418 408 q 435 421 421 421 l 868 421 q 885 400 889 421 m 847 386 l 449 386 l 363 -15 l 761 -15 l 847 386 z "},"R":{"ha":1206,"x_min":1,"x_max":1296,"o":"m 675 781 l 672 764 l 693 764 q 675 781 675 764 m 1215 743 l 1147 426 q 1131 413 1144 413 l 478 413 l 331 -283 q 314 -297 328 -297 l 22 -297 q 6 -275 1 -297 l 300 1111 q 317 1124 303 1124 l 608 1124 q 625 1103 629 1124 l 607 1021 l 706 1021 q 722 1003 725 1021 l 746 1111 q 763 1124 749 1124 l 993 1124 q 1010 1103 1014 1124 l 940 778 q 924 764 938 764 l 975 764 q 958 786 954 764 l 1028 1111 q 1044 1124 1031 1124 l 1275 1124 q 1292 1103 1296 1124 l 1222 778 q 1206 764 1219 764 l 1199 764 q 1215 743 1219 764 m 1254 1089 l 1058 1089 l 996 799 l 1192 799 l 1254 1089 m 972 1089 l 776 1089 l 714 799 l 910 799 l 972 1089 m 1178 729 l 651 729 q 635 751 631 729 l 685 986 l 586 986 q 569 1008 564 986 l 588 1089 l 331 1089 l 43 -262 l 300 -262 l 447 435 q 464 447 450 447 l 1117 447 l 1178 729 z "},"S":{"ha":1210,"x_min":-7,"x_max":1300,"o":"m 1296 1111 l 1226 782 q 1210 768 1224 768 l 976 768 q 960 790 956 768 l 1029 1119 q 1046 1132 1032 1132 l 1279 1132 q 1296 1111 1300 1132 m 1258 1097 l 1060 1097 l 997 803 l 1196 803 l 1258 1097 m 1011 1111 l 942 782 q 925 768 939 768 l 690 768 q 674 790 669 768 l 743 1119 q 760 1132 746 1132 l 994 1132 q 1011 1111 1015 1132 m 974 1097 l 774 1097 l 711 803 l 911 803 l 974 1097 m 1217 739 l 1157 453 q 1140 439 1154 439 l 532 439 l 526 414 l 1128 414 q 1144 393 1149 414 l 1000 -282 q 983 -296 997 -296 l 14 -296 q -3 -274 -7 -296 l 81 115 q 97 128 83 128 l 742 128 l 749 163 l 181 163 q 164 185 160 163 l 219 439 l 163 439 q 146 461 142 439 l 272 1058 q 289 1071 275 1071 l 361 1071 l 371 1119 q 388 1132 374 1132 l 657 1132 q 674 1111 678 1132 l 665 1071 l 696 1071 q 713 1050 717 1071 l 650 760 l 1200 760 q 1217 739 1221 760 m 1179 725 l 629 725 q 613 747 608 725 l 675 1036 l 644 1036 q 628 1058 624 1036 l 636 1097 l 401 1097 l 392 1050 q 375 1036 389 1036 l 303 1036 l 183 474 l 240 474 q 257 453 261 474 l 201 197 l 769 197 q 786 178 790 197 l 772 108 q 756 93 769 93 l 111 93 l 35 -261 l 969 -261 l 1107 379 l 506 379 q 489 401 485 379 l 501 461 q 518 474 504 474 l 1126 474 l 1179 725 z "},"T":{"ha":1088,"x_min":-1,"x_max":1169,"o":"m 1165 1103 l 1096 775 q 1079 761 1093 761 l 847 761 q 831 783 826 761 l 900 1111 q 917 1124 903 1124 l 1149 1124 q 1165 1103 1169 1124 m 1128 1089 l 931 1089 l 868 796 l 1065 796 l 1128 1089 m 881 1103 l 811 775 q 794 761 808 761 l 563 761 q 546 783 542 761 l 615 1111 q 632 1124 618 1124 l 864 1124 q 881 1103 885 1124 m 843 1089 l 646 1089 l 583 796 l 781 796 l 843 1089 m 1086 732 l 1028 456 q 1011 442 1025 442 l 689 442 l 610 71 l 925 71 q 942 50 946 71 l 871 -282 q 854 -296 868 -296 l 190 -296 q 174 -274 169 -296 l 326 442 l 19 442 q 3 464 -1 442 l 128 1050 q 144 1063 131 1063 l 450 1063 l 460 1111 q 476 1124 463 1124 l 589 1124 q 606 1103 610 1124 l 531 753 l 1069 753 q 1086 732 1090 753 m 1049 718 l 510 718 q 493 740 489 718 l 568 1089 l 490 1089 l 481 1042 q 464 1028 478 1028 l 158 1028 l 40 476 l 347 476 q 364 456 368 476 l 211 -261 l 840 -261 l 904 36 l 589 36 q 572 58 568 36 l 658 464 q 675 476 661 476 l 997 476 l 1049 718 z "},"U":{"ha":1292,"x_min":-7,"x_max":1388,"o":"m 860 1111 l 788 774 q 771 760 785 760 l 532 760 q 515 782 511 760 l 588 1119 q 604 1132 590 1132 l 843 1132 q 860 1111 864 1132 m 822 1097 l 618 1097 l 553 794 l 757 794 l 822 1097 m 568 1111 l 496 774 q 479 760 493 760 l 239 760 q 222 782 218 760 l 294 1119 q 311 1132 297 1132 l 551 1132 q 568 1111 572 1132 m 531 1097 l 325 1097 l 260 794 l 465 794 l 531 1097 m 1383 1111 l 1086 -285 q 1069 -299 1083 -299 l 14 -299 q -3 -276 -7 -299 l 211 729 q 228 742 214 742 l 760 742 q 776 721 781 742 l 644 103 l 814 103 l 1031 1119 q 1047 1132 1033 1132 l 1367 1132 q 1383 1111 1388 1132 m 1346 1097 l 1061 1097 l 844 82 q 828 68 842 68 l 624 68 q 607 90 603 68 l 739 707 l 242 707 l 35 -264 l 1056 -264 l 1346 1097 z "},"V":{"ha":1526,"x_min":3,"x_max":1640,"o":"m 732 1111 l 658 769 q 642 756 656 756 l 399 756 q 382 778 378 756 l 456 1119 q 472 1132 458 1132 l 715 1132 q 732 1111 736 1132 m 694 1097 l 486 1097 l 419 790 l 628 790 l 694 1097 m 1636 1013 l 1500 375 q 1483 361 1497 361 l 1165 361 l 1028 -285 q 1011 -299 1025 -299 l 292 -299 q 275 -276 271 -299 l 415 379 l 24 379 q 7 401 3 379 l 75 724 q 92 736 78 736 l 671 736 l 753 1119 q 769 1132 756 1132 l 913 1132 q 929 1111 933 1132 l 713 99 l 758 99 l 976 1119 q 993 1132 979 1132 l 1299 1132 q 1315 1111 1319 1132 l 1299 1033 l 1619 1033 q 1636 1013 1640 1033 m 1599 999 l 1278 999 q 1261 1021 1257 999 l 1278 1097 l 1007 1097 l 789 78 q 772 64 786 64 l 692 64 q 675 86 671 64 l 892 1097 l 783 1097 l 701 715 q 685 701 699 701 l 106 701 l 44 414 l 436 414 q 453 393 457 414 l 313 -264 l 997 -264 l 1135 383 q 1151 396 1138 396 l 1469 396 l 1599 999 m 436 1111 l 363 769 q 346 756 360 756 l 103 756 q 86 778 82 756 l 160 1119 q 176 1132 163 1132 l 419 1132 q 436 1111 440 1132 m 399 1097 l 190 1097 l 124 790 l 332 790 l 399 1097 z "},"W":{"ha":1860,"x_min":-1,"x_max":1997,"o":"m 858 1106 l 788 772 q 771 758 785 758 l 533 758 q 517 781 513 758 l 588 1114 q 604 1126 590 1126 l 842 1126 q 858 1106 863 1126 m 821 1092 l 618 1092 l 554 793 l 757 793 l 821 1092 m 1993 1107 l 1699 -282 q 1682 -296 1696 -296 l 1374 -296 q 1357 -275 1353 -296 l 1367 -225 l 1199 -225 l 1188 -281 q 1171 -296 1185 -296 l 829 -296 q 813 -275 808 -296 l 822 -225 l 681 -225 l 669 -281 q 653 -296 667 -296 l 19 -296 q 3 -274 -1 -296 l 217 736 q 233 749 219 749 l 761 749 q 778 728 782 749 l 658 164 l 914 164 l 1054 829 q 1071 842 1057 842 l 1404 842 q 1421 821 1425 842 l 1283 174 l 1443 174 l 1643 1115 q 1660 1128 1646 1128 l 1976 1128 q 1993 1107 1997 1128 m 1956 1093 l 1674 1093 l 1474 153 q 1457 139 1471 139 l 1263 139 q 1246 161 1242 139 l 1383 807 l 1085 807 l 944 143 q 928 129 942 129 l 638 129 q 621 151 617 129 l 740 714 l 247 714 l 40 -261 l 639 -261 l 650 -204 q 667 -190 653 -190 l 843 -190 q 860 -210 864 -190 l 850 -261 l 1157 -261 l 1168 -204 q 1185 -190 1171 -190 l 1388 -190 q 1404 -210 1408 -190 l 1394 -261 l 1668 -261 l 1956 1093 m 568 1106 l 497 772 q 481 758 494 758 l 243 758 q 226 781 222 758 l 297 1114 q 314 1126 300 1126 l 551 1126 q 568 1106 572 1126 m 531 1092 l 328 1092 l 264 793 l 467 793 l 531 1092 z "},"X":{"ha":1258,"x_min":1,"x_max":1353,"o":"m 1349 1111 l 1203 424 q 1186 410 1200 410 l 831 410 l 800 268 l 826 268 l 842 343 q 858 357 844 357 l 1167 357 q 1183 336 1188 357 l 1051 -283 q 1035 -297 1049 -297 l 710 -297 q 693 -275 688 -297 l 743 -47 l 399 -47 l 347 -283 q 331 -297 344 -297 l 22 -297 q 6 -275 1 -297 l 138 344 q 154 357 140 357 l 454 357 q 471 336 475 357 l 458 278 l 485 278 l 511 401 l 171 401 q 154 424 150 401 l 303 1119 q 319 1132 306 1132 l 628 1132 q 644 1111 649 1132 l 628 1035 l 989 1035 l 1007 1119 q 1024 1132 1010 1132 l 1332 1132 q 1349 1111 1353 1132 m 1311 1097 l 1038 1097 l 1019 1014 q 1003 1000 1017 1000 l 607 1000 q 590 1022 585 1000 l 607 1097 l 333 1097 l 192 436 l 532 436 q 549 415 553 436 l 515 257 q 499 243 513 243 l 438 243 q 421 265 415 243 l 433 322 l 168 322 l 43 -262 l 317 -262 l 368 -25 q 385 -12 371 -12 l 764 -12 q 781 -33 785 -12 l 731 -262 l 1021 -262 l 1146 322 l 872 322 l 857 249 q 840 233 854 233 l 779 233 q 763 256 758 233 l 800 432 q 817 444 803 444 l 1172 444 l 1311 1097 z "},"Y":{"ha":1311,"x_min":1,"x_max":1408,"o":"m 924 789 l 857 475 q 840 461 854 461 l 176 461 q 160 483 156 461 l 294 1119 q 311 1132 297 1132 l 661 1132 q 678 1111 682 1132 l 614 810 l 907 810 q 924 789 928 810 m 886 775 l 593 775 q 576 797 572 775 l 640 1097 l 325 1097 l 197 496 l 826 496 l 886 775 m 1404 1111 l 1108 -282 q 1092 -296 1106 -296 l 733 -296 q 717 -274 711 -296 l 728 -225 l 22 -225 q 6 -203 1 -225 l 135 411 q 151 424 138 424 l 882 424 l 1031 1119 q 1047 1132 1033 1132 l 1388 1132 q 1404 1111 1408 1132 m 1367 1097 l 1061 1097 l 913 403 q 896 389 910 389 l 165 389 l 43 -190 l 749 -190 q 765 -211 769 -190 l 754 -261 l 1078 -261 l 1367 1097 z "},"Z":{"ha":1167,"x_min":7,"x_max":1254,"o":"m 1250 1107 l 1179 771 q 1163 757 1176 757 l 924 757 q 907 779 903 757 l 978 1115 q 994 1128 981 1128 l 1233 1128 q 1250 1107 1254 1128 m 1213 1093 l 1008 1093 l 944 792 l 1149 792 l 1213 1093 m 958 1107 l 888 771 q 871 757 885 757 l 632 757 q 615 779 611 757 l 686 1115 q 703 1128 689 1128 l 942 1128 q 958 1107 963 1128 m 921 1093 l 717 1093 l 653 792 l 857 792 l 921 1093 m 1169 726 l 1033 86 q 1017 72 1031 72 l 421 72 l 413 36 l 1001 36 q 1018 15 1022 36 l 954 -285 q 938 -299 951 -299 l 28 -299 q 11 -276 7 -299 l 150 376 q 167 389 153 389 l 718 389 l 721 403 l 89 403 q 72 425 68 403 l 219 1119 q 236 1132 222 1132 l 617 1132 q 633 1111 638 1132 l 621 1053 l 644 1053 q 661 1032 665 1053 l 600 747 l 1153 747 q 1169 726 1174 747 m 1132 713 l 579 713 q 563 735 558 713 l 624 1018 l 600 1018 q 583 1040 578 1018 l 596 1097 l 250 1097 l 110 438 l 743 438 q 760 417 764 438 l 749 368 q 732 354 746 354 l 181 354 l 49 -264 l 924 -264 l 981 1 l 392 1 q 375 24 371 1 l 390 94 q 407 107 393 107 l 1003 107 l 1132 713 z "},"[":{"ha":490,"x_min":-1,"x_max":488,"o":"m 486 -549 l -1 -549 l -1 1267 l 486 1267 l 488 963 l 338 963 l 338 -275 l 488 -275 l 486 -549 z "},"\\":{"ha":792,"x_min":-1,"x_max":824,"o":"m 824 -274 l 486 -274 l -1 1108 l 336 1108 l 824 -274 z "},"]":{"ha":521,"x_min":3,"x_max":492,"o":"m 492 -553 l 4 -553 l 3 -279 l 153 -279 l 153 958 l 3 958 l 4 1263 l 492 1263 l 492 -553 z "},"_":{"ha":1228,"x_min":-1,"x_max":1315,"o":"m 1315 -582 l -1 -582 l -1 -308 l 1315 -308 l 1315 -582 z "},"`":{"ha":314,"x_min":-1,"x_max":336,"o":"m 336 592 l 201 786 l -1 788 l -1 1111 l 336 1111 l 336 592 z "},"a":{"ha":1236,"x_min":8,"x_max":1325,"o":"m 682 813 l 471 813 l 528 1076 l 739 1076 l 682 813 m 418 813 l 225 813 l 282 1076 l 475 1076 l 418 813 m 1210 428 l 1103 428 l 968 -208 l 881 -208 l 865 -281 l 639 -281 l 654 -210 l 8 -210 l 136 394 l 781 394 l 792 443 l 146 443 l 213 760 l 706 760 l 750 971 l 922 971 l 953 1110 l 1268 1110 l 1238 971 l 1325 971 l 1210 428 m 717 92 l 729 149 l 340 149 l 328 92 l 717 92 z "},"b":{"ha":1210,"x_min":10,"x_max":1296,"o":"m 1238 836 l 1061 836 l 1119 1110 l 1296 1110 l 1238 836 m 990 836 l 813 836 l 871 1110 l 1049 1110 l 990 836 m 1000 -281 l 10 -281 l 81 50 l 806 50 l 821 121 l 96 121 l 147 368 l 872 368 l 888 439 l 163 439 l 306 1110 l 783 1110 l 710 765 l 1222 765 l 1000 -281 z "},"c":{"ha":1156,"x_min":-3,"x_max":1238,"o":"m 668 761 l 464 761 l 525 1049 l 729 1049 l 668 761 m 414 761 l 218 761 l 279 1049 l 475 1049 l 414 761 m 989 -279 l -3 -279 l 211 729 l 693 729 l 750 996 l 865 996 l 889 1110 l 1174 1110 l 1150 996 l 1238 996 l 1117 426 l 1033 426 l 974 146 l 685 146 l 744 426 l 396 426 l 315 47 l 1058 47 l 989 -279 z "},"d":{"ha":1203,"x_min":8,"x_max":1289,"o":"m 1229 800 l 1022 800 l 1082 1083 l 1289 1083 l 1229 800 m 968 800 l 772 800 l 832 1083 l 1028 1083 l 968 800 m 1014 -278 l 8 -278 l 304 1110 l 610 1110 l 585 994 l 746 994 l 689 726 l 1228 726 l 1014 -278 m 746 38 l 825 406 l 457 406 l 378 38 l 746 38 z "},"e":{"ha":1204,"x_min":-4,"x_max":1290,"o":"m 1008 -279 l -4 -279 l 121 313 l 465 313 l 486 411 l 142 411 l 269 1011 l 596 1011 l 617 1110 l 888 1110 l 867 1011 l 1290 1010 l 1163 410 l 778 410 l 758 319 l 1138 319 l 1100 139 l 722 139 l 710 83 l 428 83 l 440 138 l 364 138 l 338 15 l 1071 15 l 1008 -279 z "},"f":{"ha":1286,"x_min":10,"x_max":1378,"o":"m 1256 425 l 658 425 l 642 342 l 1226 342 l 1171 79 l 586 79 l 510 -279 l 10 -279 l 121 246 l 347 246 l 385 425 l 158 425 l 281 997 l 518 997 l 540 1104 l 815 1104 l 793 997 l 1378 997 l 1256 425 z "},"g":{"ha":1122,"x_min":-3,"x_max":1203,"o":"m 1133 776 l 904 776 l 974 1104 l 1203 1104 l 1133 776 m 836 776 l 617 776 l 686 1104 l 906 1104 l 836 776 m 921 -279 l -3 -279 l 140 397 l 33 397 l 183 1104 l 622 1104 l 542 721 l 1110 721 l 1040 397 l 472 397 l 393 26 l 638 26 l 658 122 l 550 122 l 593 325 l 1049 325 l 921 -279 z "},"h":{"ha":1060,"x_min":0,"x_max":1136,"o":"m 1039 99 l 932 99 l 867 -208 l 594 -208 l 660 99 l 471 99 l 390 -281 l 0 -281 l 296 1117 l 686 1117 l 536 407 l 725 407 l 840 951 l 1136 951 l 1021 407 l 1104 407 l 1039 99 z "},"i":{"ha":1140,"x_min":8,"x_max":1222,"o":"m 1156 683 l 943 683 l 1010 999 l 1222 999 l 1156 683 m 872 683 l 660 683 l 726 999 l 939 999 l 872 683 m 1086 357 l 708 357 l 656 114 l 1010 114 l 953 -158 l 599 -158 l 572 -278 l 289 -278 l 315 -158 l 8 -158 l 65 114 l 349 114 l 401 357 l 118 357 l 276 1106 l 678 1106 l 575 621 l 1142 621 l 1086 357 z "},"j":{"ha":1106,"x_min":1,"x_max":1185,"o":"m 571 694 l 360 694 l 426 1011 l 638 1011 l 571 694 m 301 694 l 90 694 l 157 1011 l 368 1011 l 301 694 m 892 -279 l 1 -279 l 99 179 l 496 179 l 468 51 l 656 51 l 731 403 l 28 403 l 81 649 l 619 649 l 696 1011 l 872 1011 l 892 1106 l 1185 1106 l 892 -279 z "},"k":{"ha":1278,"x_min":11,"x_max":1369,"o":"m 1053 -281 l 738 -281 l 811 64 l 347 64 l 274 -281 l 11 -281 l 307 1115 l 592 1115 l 503 696 l 1008 1115 l 1369 1115 l 868 704 l 956 704 l 969 765 l 1275 765 l 1053 -281 z "},"l":{"ha":1185,"x_min":-3,"x_max":1269,"o":"m 1199 778 l 965 778 l 1036 1107 l 1269 1107 l 1199 778 m 914 778 l 679 778 l 750 1107 l 985 1107 l 914 778 m 993 -192 l 292 -192 l 274 -278 l -3 -278 l 293 1115 l 553 1115 l 386 328 l 1104 328 l 993 -192 z "},"m":{"ha":1518,"x_min":-8,"x_max":1626,"o":"m 1556 764 l 1319 764 l 1390 1097 l 1626 1097 l 1556 764 m 1267 764 l 1029 764 l 1100 1097 l 1338 1097 l 1267 764 m 1481 414 l 1403 414 l 1256 -279 l 949 -279 l 1096 411 l 911 411 l 764 -279 l 457 -279 l 604 414 l 454 414 l 307 -279 l -8 -279 l 289 1115 l 604 1115 l 581 1010 l 1038 1010 l 976 721 l 1546 721 l 1481 414 z "},"n":{"ha":1271,"x_min":-4,"x_max":1361,"o":"m 1290 781 l 1063 781 l 1133 1115 l 1361 1115 l 1290 781 m 1010 781 l 772 781 l 843 1115 l 1081 1115 l 1010 781 m 1219 447 l 1167 447 l 1044 -125 l 561 -125 l 619 146 l 786 146 l 846 429 l 451 429 l 304 -265 l -4 -265 l 289 1115 l 597 1115 l 578 1028 l 771 1028 l 707 728 l 1278 728 l 1219 447 z "},"o":{"ha":1196,"x_min":14,"x_max":1282,"o":"m 1213 776 l 978 776 l 1047 1107 l 1282 1107 l 1213 776 m 926 776 l 692 776 l 761 1107 l 996 1107 l 926 776 m 647 776 l 239 776 l 308 1107 l 717 1107 l 647 776 m 988 -279 l 14 -279 l 229 733 l 1203 733 l 988 -279 m 763 -32 l 858 419 l 442 419 l 346 -32 l 763 -32 z "},"p":{"ha":1131,"x_min":11,"x_max":1211,"o":"m 1142 789 l 910 789 l 979 1115 l 1211 1115 l 1142 789 m 858 789 l 626 789 l 696 1115 l 928 1115 l 858 789 m 1017 204 l 372 204 l 269 -281 l 11 -281 l 117 213 l 49 213 l 90 411 l 163 411 l 171 453 l 99 453 l 224 1038 l 292 1038 l 308 1115 l 558 1115 l 542 1038 l 636 1038 l 574 746 l 1132 746 l 1017 204 m 760 406 l 771 454 l 426 454 l 415 406 l 760 406 z "},"q":{"ha":1186,"x_min":10,"x_max":1271,"o":"m 1200 786 l 967 786 l 1038 1115 l 1271 1115 l 1200 786 m 914 786 l 679 786 l 750 1115 l 985 1115 l 914 786 m 636 786 l 211 786 l 282 1115 l 707 1115 l 636 786 m 999 -164 l 704 -164 l 679 -278 l 340 -278 l 365 -164 l 10 -164 l 200 733 l 1189 733 l 999 -164 m 775 -32 l 868 404 l 435 404 l 342 -32 l 775 -32 z "},"r":{"ha":1161,"x_min":-8,"x_max":1244,"o":"m 1175 782 l 944 782 l 1014 1107 l 1244 1107 l 1175 782 m 893 782 l 663 782 l 732 1107 l 963 1107 l 893 782 m 1100 431 l 433 431 l 283 -279 l -8 -279 l 286 1107 l 578 1107 l 556 1004 l 675 1004 l 621 747 l 1168 747 l 1100 431 z "},"s":{"ha":1194,"x_min":14,"x_max":1279,"o":"m 1210 786 l 976 786 l 1046 1115 l 1279 1115 l 1210 786 m 925 786 l 690 786 l 760 1115 l 994 1115 l 925 786 m 983 -278 l 14 -278 l 97 111 l 756 111 l 769 181 l 181 181 l 240 457 l 163 457 l 289 1054 l 375 1054 l 388 1115 l 657 1115 l 644 1054 l 696 1054 l 629 743 l 1200 743 l 1140 457 l 518 457 l 506 397 l 1128 397 l 983 -278 z "},"t":{"ha":1053,"x_min":-1,"x_max":1128,"o":"m 1058 779 l 826 779 l 896 1107 l 1128 1107 l 1058 779 m 774 779 l 542 779 l 611 1107 l 843 1107 l 774 779 m 833 -278 l 169 -278 l 326 460 l -1 460 l 124 1046 l 443 1046 l 456 1107 l 568 1107 l 489 736 l 1049 736 l 990 460 l 654 460 l 568 54 l 904 54 l 833 -278 z "},"u":{"ha":1261,"x_min":-1,"x_max":1351,"o":"m 756 778 l 517 778 l 589 1115 l 828 1115 l 756 778 m 464 778 l 224 778 l 296 1115 l 536 1115 l 464 778 m 1054 -281 l -1 -281 l 213 725 l 744 725 l 608 86 l 813 86 l 1032 1115 l 1351 1115 l 1054 -281 z "},"v":{"ha":1488,"x_min":-3,"x_max":1593,"o":"m 615 774 l 372 774 l 446 1115 l 689 1115 l 615 774 m 1457 379 l 1125 379 l 985 -281 l 265 -281 l 410 397 l -3 397 l 65 719 l 658 719 l 743 1115 l 886 1115 l 665 82 l 746 82 l 967 1115 l 1272 1115 l 1251 1017 l 1593 1017 l 1457 379 m 319 774 l 76 774 l 150 1115 l 393 1115 l 319 774 z "},"w":{"ha":1829,"x_min":3,"x_max":1960,"o":"m 754 776 l 517 776 l 588 1110 l 825 1110 l 754 776 m 1665 -278 l 1357 -278 l 1371 -207 l 1168 -207 l 1154 -278 l 813 -278 l 826 -207 l 650 -207 l 636 -278 l 3 -278 l 217 732 l 744 732 l 621 147 l 911 147 l 1054 825 l 1388 825 l 1246 157 l 1440 157 l 1643 1111 l 1960 1111 l 1665 -278 m 464 776 l 226 776 l 297 1110 l 535 1110 l 464 776 z "},"x":{"ha":1218,"x_min":-4,"x_max":1306,"o":"m 1008 -279 l 683 -279 l 738 -29 l 358 -29 l 304 -279 l -4 -279 l 128 340 l 428 340 l 411 261 l 472 261 l 506 419 l 144 419 l 293 1115 l 601 1115 l 581 1018 l 976 1018 l 997 1115 l 1306 1115 l 1160 428 l 790 428 l 753 251 l 814 251 l 832 340 l 1140 340 l 1008 -279 z "},"y":{"ha":1275,"x_min":1,"x_max":1367,"o":"m 819 479 l 156 479 l 290 1115 l 640 1115 l 572 793 l 886 793 l 819 479 m 1071 -278 l 713 -278 l 728 -207 l 1 -207 l 131 407 l 875 407 l 1026 1115 l 1367 1115 l 1071 -278 z "},"z":{"ha":1122,"x_min":-3,"x_max":1203,"o":"m 1132 775 l 893 775 l 964 1111 l 1203 1111 l 1132 775 m 840 775 l 601 775 l 672 1111 l 911 1111 l 840 775 m 907 -281 l -3 -281 l 136 372 l 701 372 l 713 421 l 58 421 l 206 1115 l 586 1115 l 569 1036 l 614 1036 l 549 731 l 1122 731 l 986 90 l 376 90 l 361 19 l 971 19 l 907 -281 z "},"{":{"ha":490,"x_min":-1,"x_max":488,"o":"m 486 -549 l -1 -549 l -1 1267 l 486 1267 l 488 963 l 338 963 l 338 -275 l 488 -275 l 486 -549 z "},"|":{"ha":365,"x_min":-1,"x_max":336,"o":"m 336 -274 l -1 -274 l -1 1108 l 336 1108 l 336 -274 z "},"}":{"ha":521,"x_min":3,"x_max":492,"o":"m 492 -553 l 4 -553 l 3 -279 l 153 -279 l 153 958 l 3 958 l 4 1263 l 492 1263 l 492 -553 z "}}}
